# xmcd
# 
# Track frame offsets:
#     150
#     19160
#     33247
#     49772
#     70452
#     90522
#     104117
#     124422
#     145940
#     162572
#     183377
#     198435
#     218735
#     247760
#     267932
#     286025
#     295965
# 
# Disc length: 4106
# 
# Revision: 0
# Processed by: cddbd v1.5.2PL0 Copyright (c) Steve Scherf et al.
# Submitted via: fre:ac v1.0.31
# 
DISCID=03100811
DTITLE=Various Artist - The Sound of Ireland Volume 1
DYEAR=1996
DGENRE=Celtic
TTITLE0=The Fureys - When You Were Sweet Sixteen
TTITLE1=Horslips - Dearg Doom
TTITLE2=Stocktons Wing - When You Smiled
TTITLE3=Paddy Reilly - The Fields of Athenry
TTITLE4=Hedge School - Hedge School
TTITLE5=Phil Coulter - The Derry Air
TTITLE6=Sean O'Neil Band - Danny Boy - Galway Bay - Rose Of Tralee
TTITLE7=The Wolf Tones - Streets Of New York
TTITLE8=De Danann - Irish Molly-O
TTITLE9=Altan - Lass Of Glenshee
TTITLE10=Celtic Panpipes - Spinning Wheel
TTITLE11=Celtic Moods - Riverdance
TTITLE12=The Dubliners - The Town I Loved So Well
TTITLE13=Celtic Voice - Dulaman
TTITLE14=Celtic Dreams - Dublin Medley: Crockles and Mussels - Rare Old Times - Dublin Saunter
TTITLE15=Irish Sing Along - Sweet Rosie O'Grady - When Irish Eyes Are Smiling
TTITLE16=Celtic Echoes - Star Of The Country Down
EXTD=
EXTT0=
EXTT1=
EXTT2=
EXTT3=
EXTT4=
EXTT5=
EXTT6=
EXTT7=
EXTT8=
EXTT9=
EXTT10=
EXTT11=
EXTT12=
EXTT13=
EXTT14=
EXTT15=
EXTT16=
PLAYORDER=
